<svg xmlns="http://www.w3.org/2000/svg" viewBox="0 0 24 24" width="80" height="80">
  <path d="M23.954 4.569c-.885.389-1.83.654-2.825.775 1.014-.611 1.794-1.574 2.163-2.723-.951.555-2.005.959-3.127 1.184-.896-.959-2.173-1.559-3.591-1.559-2.717 0-4.92 2.203-4.92 4.917 0 .39.045.77.127 1.134-4.087-.206-7.71-2.165-10.126-5.144-.423.722-.666 1.561-.666 2.461 0 1.696.87 3.193 2.188 4.07-.807-.026-1.566-.248-2.228-.616v.061c0 2.367 1.693 4.342 3.946 4.789-.413.111-.849.171-1.296.171-.314 0-.615-.03-.916-.085.63 1.953 2.445 3.377 4.604 3.417-1.68 1.319-3.809 2.105-6.102 2.105-.39 0-.779-.023-1.17-.067 2.189 1.394 4.768 2.209 7.557 2.209 9.054 0 14-7.496 14-14 0-.209 0-.42-.015-.63.961-.689 1.8-1.56 2.46-2.548l-.047-.02z"/>
</svg>
